<svg xmlns="http://www.w3.org/2000/svg" width="512" height="512" viewBox="0 0 512 512">
  <defs>
    <style>
      .cls-1 {
        fill: #fefefe;
        fill-rule: evenodd;
      }
    </style>
  </defs>
  <path id="ITS" class="cls-1" d="M106.023,338h35.192V174.154H106.023V338Zm46.746-163.846V205.8h46.845V338h35.077V205.8h46.732v-31.65H152.769ZM369.187,290.012a18.778,18.778,0,0,1-7.141,15.082q-7.141,5.942-19.824,5.941a47.314,47.314,0,0,1-21.024-4.913q-10.054-4.913-12.968-7.827t-4.513-4.741l-21.138,21.023,2.628,2.857a48.1,48.1,0,0,0,7.541,6.741,105.35,105.35,0,0,0,12.169,7.884,75.1,75.1,0,0,0,17.6,6.684,86.873,86.873,0,0,0,22.109,2.8q29.022,0,45.532-14.4t16.51-37.134q0-16.111-8.341-26.622a47.039,47.039,0,0,0-20.281-15.082q-11.94-4.57-23.765-8a85.259,85.259,0,0,1-20.11-8.4q-8.283-4.971-8.283-13.2,0-7.312,6.112-12.454t16.168-5.142A36.3,36.3,0,0,1,364.388,205q7.882,3.885,10.34,6.227t3.828,3.942l21.023-22.28-2.057-2.285a34.464,34.464,0,0,0-6.455-5.656,86.986,86.986,0,0,0-10.512-6.4,70.316,70.316,0,0,0-15.367-5.484,79.772,79.772,0,0,0-19.424-2.342q-25.481,0-41.419,14.053t-15.939,33.935q0,16.11,8.341,26.622a47.173,47.173,0,0,0,20.166,15.082q11.826,4.571,23.766,7.941a81.846,81.846,0,0,1,20.224,8.4Q369.186,281.786,369.187,290.012Z"/>
</svg>
